<svg width="24" height="24" viewBox="0 0 24 24" fill="none" xmlns="http://www.w3.org/2000/svg">
<path d="M19.6307 9.4355C19.5489 9.1045 19.2978 8.84168 18.9709 8.74482C18.5694 8.66305 18.1518 8.74419 17.8101 8.97042L17.7779 8.98652C17.6604 9.04569 17.5441 9.10957 17.4281 9.1733C17.3138 9.23602 17.2002 9.29871 17.0862 9.35552C17.0296 9.38639 16.9588 9.36839 16.9239 9.31421L15.4761 6.53778C16.052 5.92894 16.2101 5.03562 15.8781 4.26612C15.5461 3.49662 14.7878 2.9987 13.9497 3C12.8155 3.0018 11.8875 3.90338 11.8528 5.03699H11.3135C11.041 5.03692 10.7812 4.92143 10.5987 4.71911C10.3025 4.38977 9.8808 4.20115 9.43791 4.19999H7.86291C7.3119 4.20171 6.80213 4.49214 6.51965 4.96524L6.14144 5.60434C6.0994 5.67392 6.0487 5.73794 5.99055 5.79479L4.80754 6.9876C4.51223 7.28221 4.34731 7.68289 4.34963 8.10002V9.05701C4.34995 9.43156 4.48291 9.79392 4.72493 10.0798L5.6507 11.1655C5.98686 11.5606 6.49701 11.7634 7.01269 11.7071L8.47315 11.5422C8.66043 11.5215 8.84967 11.5568 9.01691 11.6436L9.08662 11.677C9.41635 11.8422 9.62381 12.1802 9.62188 12.549V12.648C9.62149 12.8364 9.65535 13.0233 9.72179 13.1996L10.4636 15.1931C10.4651 15.1981 10.468 15.2077 10.4712 15.2178L11.5034 19.3836C11.5205 19.4501 11.5015 19.5208 11.4533 19.5698L11.3463 19.6767C11.1072 19.9216 11.0481 20.2904 11.1987 20.5978C11.3238 20.8436 11.5759 20.9989 11.8517 21H12.9457C13.2478 21.001 13.5239 20.8292 13.6564 20.5577L14.8298 18.1971C14.8734 18.1086 14.9251 18.0243 14.9842 17.9453L16.0597 16.4997C16.4152 16.0202 16.5683 15.4203 16.4862 14.8291L16.435 14.4658C16.3753 14.0459 16.4768 13.6189 16.7191 13.2708L18.1195 11.6619C18.4761 11.252 18.8467 10.8394 19.2527 10.4012C19.3725 10.2719 19.737 9.87893 19.6307 9.4355ZM13.9497 3.60001C14.7781 3.60001 15.4497 4.27161 15.4497 5.10003C15.4497 5.92845 14.7781 6.60001 13.9497 6.60001C13.1212 6.60001 12.4496 5.92841 12.4496 5.09999C12.4506 4.27199 13.1216 3.60096 13.9497 3.60001ZM14.2497 7.20002V10.8C14.2497 10.9657 14.1154 11.1 13.9497 11.1C13.784 11.1 13.6497 10.9657 13.6497 10.8V7.20002H14.2497ZM18.8127 9.99318C18.4022 10.4363 18.0275 10.8534 17.6669 11.2682L16.2498 12.8981C15.9063 13.3757 15.7599 13.9672 15.8408 14.5499L15.892 14.9127C15.9525 15.3473 15.84 15.7884 15.5785 16.1408L14.5028 17.5869C14.4215 17.6952 14.3507 17.8109 14.2912 17.9325L13.1188 20.2913C13.0866 20.3577 13.0194 20.3999 12.9456 20.4H11.8517C11.8039 20.3997 11.7599 20.3738 11.7365 20.332C11.6985 20.2546 11.7127 20.1617 11.7723 20.0993L11.8775 19.9941C12.0739 19.7959 12.1528 19.5097 12.0858 19.2388L11.0516 15.0658C11.0494 15.0558 11.0464 15.046 11.0428 15.0365C11.0404 15.0277 11.0299 14.994 11.0267 14.9854L10.2831 12.9873C10.2422 12.8789 10.2215 12.764 10.2219 12.6481V12.549C10.2241 11.9513 9.88632 11.4042 9.35089 11.1384L9.28174 11.1054C9.01174 10.968 8.70746 10.9126 8.40635 10.9459L6.94649 11.1107C6.62853 11.1455 6.31403 11.0202 6.10713 10.7763L5.18224 9.69126C5.03223 9.51393 4.94982 9.28925 4.94961 9.05697V8.09998C4.94778 7.84179 5.04963 7.59366 5.23234 7.4112L6.41095 6.22264C6.50471 6.13109 6.58642 6.02794 6.65413 5.91572L7.03557 5.27134C7.20963 4.98004 7.52358 4.8012 7.86291 4.79997H9.43791C9.71082 4.80099 9.97056 4.91753 10.1527 5.12077C10.4493 5.4492 10.871 5.63676 11.3135 5.63697H11.8936C11.9031 5.63697 11.9111 5.6324 11.9204 5.63156C12.0784 6.22967 12.4913 6.72808 13.0496 6.99442V10.8C13.0496 11.297 13.4526 11.7 13.9496 11.7C14.4467 11.7 14.8496 11.297 14.8496 10.8V6.99446C14.8999 6.97045 14.9492 6.94506 14.9972 6.91729L16.3962 9.6C16.5863 9.93739 17.0078 10.0661 17.3539 9.89239C17.4752 9.83189 17.5959 9.76569 17.7169 9.69921C17.8268 9.63884 17.9369 9.57834 18.048 9.52241L18.0805 9.50585C18.2874 9.36037 18.5394 9.29354 18.7913 9.3173C18.9162 9.35207 19.0135 9.45026 19.047 9.57556C19.0544 9.60632 19.0593 9.72716 18.8127 9.99318Z" fill="#5CE5BD" stroke="#5CE5BD" stroke-width="0.5"/>
</svg>
