<svg width="24" height="24" viewBox="0 0 24 24" fill="none" xmlns="http://www.w3.org/2000/svg">
<path fill-rule="evenodd" clip-rule="evenodd" d="M19.9445 9.06713C19.8042 8.60338 19.4044 8.22247 18.8332 8.03084L13.5782 6.25526C12.5632 5.91471 11.3989 5.91467 10.3801 6.25659L5.16878 8.03019C4.44782 8.2721 4 8.81298 4 9.44179C4 10.0706 4.44787 10.6115 5.16869 10.8533L7.11439 11.5064C6.94315 11.9981 6.60568 13.2733 6.60568 15.6859C6.60568 16.1325 6.97167 16.5043 7.44665 16.5402C7.46658 16.5417 9.42101 16.7004 11.4068 17.803C11.5722 17.9314 11.7799 18 11.9911 18L12 17.9997L12.0089 18C12.22 18 12.4277 17.9314 12.593 17.8031C14.5618 16.7106 16.5353 16.5416 16.5533 16.5402C17.0283 16.5044 17.3943 16.1325 17.3943 15.6859C17.3943 13.2664 17.0549 11.9908 16.8841 11.5021L18.1714 11.0732V12.9005C18.1714 13.3738 18.5807 13.7575 19.0857 13.7575C19.5907 13.7575 20 13.3738 20 12.9005V9.35891C20.0001 9.25628 19.9798 9.15832 19.9445 9.06713ZM12.9619 10.9899C12.3477 11.1961 11.6143 11.196 11.0002 10.9899L6.3833 9.44037L11.0002 7.86907C11.6144 7.66295 12.3477 7.66299 12.96 7.86843L17.6123 9.44037L12.9619 10.9899ZM15.5539 14.9513C14.7233 15.1032 13.3881 15.4368 12 16.1477C10.612 15.4368 9.27671 15.1032 8.44617 14.9513C8.50162 13.283 8.73655 12.3952 8.83753 12.0847L10.3839 12.6037C10.8917 12.7741 11.4368 12.8592 11.9816 12.8592C12.5259 12.8592 13.07 12.7742 13.5763 12.6043L15.1608 12.0763C15.2567 12.3676 15.4977 13.2555 15.5539 14.9513Z" fill="#294966"/>
</svg>
