<svg width="24" height="24" viewBox="0 0 24 24" fill="none" xmlns="http://www.w3.org/2000/svg">
<path d="M15.1641 9.36328C15.4553 9.36328 15.6914 9.12718 15.6914 8.83593C15.6914 8.54468 15.4553 8.30858 15.1641 8.30858C14.8728 8.30858 14.6367 8.54468 14.6367 8.83593C14.6367 9.12718 14.8728 9.36328 15.1641 9.36328Z" fill="#5CE5BD"/>
<path d="M8.83594 9.36328C9.12719 9.36328 9.3633 9.12718 9.3633 8.83593C9.3633 8.54468 9.12719 8.30858 8.83594 8.30858C8.5447 8.30858 8.30859 8.54468 8.30859 8.83593C8.30859 9.12718 8.5447 9.36328 8.83594 9.36328Z" fill="#5CE5BD"/>
<path d="M12 6.19917C11.1277 6.19917 10.418 6.90888 10.418 7.78123C10.418 8.65357 11.1277 9.36328 12 9.36328C12.8724 9.36328 13.5821 8.65357 13.5821 7.78123C13.5821 6.90888 12.8724 6.19917 12 6.19917ZM12 8.30858C11.7092 8.30858 11.4727 8.07201 11.4727 7.78123C11.4727 7.49044 11.7092 7.25387 12 7.25387C12.2908 7.25387 12.5274 7.49044 12.5274 7.78123C12.5274 8.07201 12.2908 8.30858 12 8.30858Z" fill="#5CE5BD"/>
<path d="M19.9455 12.0001V11.3821C20.5593 11.1644 21.0002 10.5782 21.0002 9.89071V8.83601C21.0002 8.54477 20.7641 8.30866 20.4729 8.30866H18.5546L12.3379 3.12241C12.1423 2.95918 11.8579 2.95921 11.6623 3.12241L5.59249 8.18642C5.49792 8.26524 5.378 8.30866 5.25488 8.30866H3.52735C3.23611 8.30866 3 8.54477 3 8.83601V9.89071C3 10.5782 3.4409 11.1644 4.0547 11.3821V12.0001C4.0547 12.6876 4.4956 13.2738 5.1094 13.4915V17.8361H4.58205C3.70971 17.8361 3 18.5458 3 19.4182V20.4729C3 20.7641 3.23611 21.0002 3.52735 21.0002C3.86739 21.0002 19.9497 21.0002 20.4729 21.0002C20.7641 21.0002 21.0002 20.7641 21.0002 20.4729V19.4182C21.0002 18.5458 20.2905 17.8361 19.4182 17.8361H18.8908V13.4915C19.5046 13.2738 19.9455 12.6876 19.9455 12.0001ZM4.58205 10.4181C4.29127 10.4181 4.0547 10.1815 4.0547 9.89071V9.36336H5.25492C5.62427 9.36336 5.98393 9.23314 6.26792 8.99647L12.0001 4.21413L18.0257 9.24095C18.1205 9.32005 18.2401 9.36336 18.3635 9.36336H19.9455V9.89071C19.9455 10.1815 19.709 10.4181 19.4182 10.4181C18.7079 10.4181 5.29004 10.4181 4.58205 10.4181ZM12.0001 13.5822C10.5462 13.5822 9.36337 14.765 9.36337 16.2189V17.8361H8.30867V13.4915C8.92247 13.2738 9.36337 12.6876 9.36337 12.0001V11.4728H14.6369V12.0001C14.6369 12.6876 15.0778 13.2738 15.6916 13.4915V17.8361H14.6369V16.2189C14.6369 14.765 13.454 13.5822 12.0001 13.5822ZM13.5822 16.2189V17.8361C13.2133 17.8361 12.8963 17.8361 12.5275 17.8361V14.7276C13.1413 14.9453 13.5822 15.5314 13.5822 16.2189ZM11.4728 14.7276V17.8361C11.1039 17.8361 10.7869 17.8361 10.4181 17.8361V16.2189C10.4181 15.5314 10.859 14.9453 11.4728 14.7276ZM5.63675 12.5275C5.34597 12.5275 5.1094 12.2909 5.1094 12.0001V11.4728H8.30867V12.0001C8.30867 12.2909 8.0721 12.5275 7.78131 12.5275H5.63675ZM7.25396 13.5822V17.8361H6.16411V13.5822H7.25396ZM8.61759 19.9455H4.0547V19.4182C4.0547 19.1274 4.29127 18.8908 4.58205 18.8908C5.3491 18.8908 9.06007 18.8908 9.67229 18.8908L8.61759 19.9455ZM10.1091 19.9455L11.1638 18.8908H12.8364L13.8911 19.9455H10.1091ZM19.4182 18.8908C19.709 18.8908 19.9455 19.1274 19.9455 19.4182V19.9455H15.3827L14.328 18.8908C14.8983 18.8908 18.9125 18.8908 19.4182 18.8908ZM16.7463 17.8361V13.5822H17.8361V17.8361H16.7463ZM18.3635 12.5275H16.2189C15.9281 12.5275 15.6916 12.2909 15.6916 12.0001V11.4728H18.8908V12.0001C18.8908 12.2909 18.6543 12.5275 18.3635 12.5275Z" fill="#5CE5BD"/>
</svg>
