<svg width="24" height="24" viewBox="0 0 24 24" fill="none" xmlns="http://www.w3.org/2000/svg">
<path d="M21.983 13.7094L21.7799 12.0954C21.7366 11.7538 21.6081 11.4286 21.4062 11.1497L20.3025 9.61903C20.0876 9.32466 19.9721 8.96948 19.9728 8.605V5.78545C19.9725 5.51682 19.91 5.25194 19.7902 5.01146L19.2997 4.04399C19.1714 3.79199 18.9014 3.64471 18.6201 3.67307C18.3387 3.70142 18.1036 3.89967 18.0281 4.17221L17.1315 7.49954C17.101 7.61581 17.0141 7.709 16.9002 7.74739C16.7827 7.78926 16.652 7.76922 16.5524 7.694L14.756 6.36088C14.6962 6.31686 14.6512 6.25573 14.6268 6.18563L14.5301 5.89887C14.3691 5.42851 13.8967 5.13887 13.4045 5.2087L11.8895 5.42238C11.5561 5.47124 11.2671 5.67859 11.1139 5.97878L10.884 6.43528C10.7346 6.72727 10.4596 6.9347 10.1377 6.9982L9.47473 7.12807C9.13889 7.19275 8.83006 7.35643 8.58799 7.59804L7.33505 8.83653V7.44087C8.3208 6.97329 8.85084 5.88493 8.61123 4.82055C8.37158 3.75618 7.42624 3 6.33519 3C5.24414 3 4.29881 3.75618 4.05916 4.82055C3.81951 5.88493 4.34955 6.97329 5.33534 7.44087V9.89547C4.45094 10.2568 3.81474 11.0478 3.65152 11.9892L3.20807 14.6164C3.19612 14.685 3.17421 14.7516 3.14296 14.8138L2.14995 16.7764C1.88604 17.2935 1.97997 17.9211 2.38362 18.3382C2.39264 18.3497 2.40237 18.3606 2.41276 18.3709C2.82028 18.7744 3.43323 18.8873 3.95777 18.6555L6.23997 17.6509C6.35339 17.6002 6.47318 17.5651 6.59605 17.5467L10.3728 16.9734C10.5413 16.9465 10.7065 17.0381 10.7727 17.1954L11.0391 17.8546C11.2328 18.3288 11.7433 18.591 12.2416 18.4722L12.3228 18.4536C12.4227 18.4276 12.529 18.4451 12.6154 18.5018C12.6999 18.5557 12.758 18.6425 12.7757 18.7412L12.9293 19.673C12.9936 20.0491 13.2609 20.3586 13.6237 20.4769L15.0501 20.9456C15.3105 21.0334 15.5952 21.0142 15.8415 20.8922L17.2724 20.1849C17.5869 20.028 17.8642 19.8057 18.0858 19.533L21.542 15.2568C21.8932 14.8224 22.0523 14.2637 21.983 13.7094ZM4.66876 5.33614C4.66876 4.41581 5.41486 3.66971 6.33519 3.66971C7.25553 3.66971 8.00163 4.41577 8.00163 5.33614C8.00163 6.25652 7.25553 7.00258 6.33519 7.00258C5.41529 7.00148 4.66985 6.25601 4.66876 5.33614ZM6.66846 7.66912V11.6685C6.66846 11.8526 6.51927 12.0018 6.33519 12.0018C6.15112 12.0018 6.00192 11.8526 6.00192 11.6685V10.1424C6.00208 10.1402 6.0018 10.1382 6.00192 10.1361V7.66912H6.66846ZM21.0235 14.8382L17.5686 19.1128C17.407 19.3115 17.205 19.4735 16.9759 19.5881L15.5448 20.2954C15.4564 20.3388 15.3544 20.3454 15.2613 20.3134L13.8318 19.8437C13.705 19.8018 13.6111 19.6941 13.5868 19.5627L13.4328 18.6295C13.383 18.3478 13.2188 18.0993 12.9791 17.9431C12.7394 17.7869 12.4457 17.737 12.1679 17.8053L12.0886 17.8233C11.9107 17.8681 11.727 17.7753 11.6573 17.6056L11.3911 16.9467C11.2122 16.4999 10.747 16.2371 10.272 16.3145L6.49583 16.8878C6.31387 16.915 6.13647 16.9669 5.96857 17.0422L3.69105 18.0447C3.42695 18.1613 3.11902 18.112 2.90452 17.9188C2.89691 17.9095 2.88882 17.9007 2.88027 17.8924C2.66116 17.6801 2.60605 17.3498 2.74439 17.0779L3.73854 15.1128C3.79978 14.991 3.84255 14.8608 3.86532 14.7263L4.30877 12.0996C4.41571 11.4829 4.79206 10.9459 5.3353 10.635V11.6685C5.3353 12.2207 5.78297 12.6684 6.33515 12.6684C6.88734 12.6684 7.33501 12.2207 7.33501 11.6685V9.7296C7.43761 9.65481 7.5351 9.57322 7.6268 9.48538L9.05808 8.0707C9.20669 7.92225 9.39643 7.82172 9.60276 7.78215L10.2662 7.65213C10.7896 7.5482 11.2365 7.21032 11.4792 6.73512L11.7087 6.27964C11.7633 6.17309 11.8661 6.09951 11.9845 6.08209L13.4967 5.86892C13.6715 5.84298 13.8401 5.94488 13.8983 6.11173L13.9961 6.40189C14.0646 6.59936 14.1909 6.77164 14.3587 6.89627L16.1551 8.22939C16.4324 8.43565 16.794 8.4908 17.1201 8.37652C17.4419 8.26482 17.6872 8.00087 17.7752 7.67186L18.6718 4.34566L18.3499 4.25892L18.7057 4.34629L19.1945 5.31068C19.2679 5.45816 19.3061 5.62063 19.3062 5.78537V8.60496C19.3051 9.10973 19.4648 9.60177 19.7621 10.0097L20.8665 11.5411C21.0027 11.7293 21.0893 11.9489 21.1184 12.1795L21.3218 13.794C21.3684 14.1682 21.2606 14.5451 21.0235 14.8382Z" fill="#294966" stroke="#294966" stroke-width="0.5"/>
</svg>
