<svg width="24" height="24" viewBox="0 0 24 24" fill="none" xmlns="http://www.w3.org/2000/svg">
<path d="M17.6446 7.87433C17.5629 7.65914 17.3958 7.48733 17.1829 7.39954L15.0438 6.51973C15.5684 5.95171 15.7378 5.14111 15.4847 4.4105C15.2316 3.67992 14.5969 3.1479 13.8334 3.02619C13.0698 2.90448 12.3012 3.21284 11.8335 3.82853L11.548 3.53529C11.2189 3.19234 10.7639 2.99895 10.2885 3.00007H9.28044C8.80534 2.99891 8.35042 3.19213 8.02139 3.53487L7.38549 4.18877C6.98668 4.60136 6.80636 5.17817 6.89917 5.74443L7.04978 6.68707C7.06261 6.76427 7.03769 6.84292 6.9827 6.89861L6.64183 7.25147C6.29885 7.60243 6.20354 8.12661 6.40101 8.57583L7.30832 10.679C7.41878 10.93 7.61189 11.1354 7.85545 11.2613L8.59433 11.6444C8.66492 11.6818 8.71245 11.7518 8.72131 11.8312L9.32073 17.3936C9.32509 17.4457 9.33475 17.4971 9.34959 17.5472L10.1292 20.2154C10.2608 20.6772 10.6814 20.9968 11.1616 21.0001C11.4297 21.0002 11.6881 20.8996 11.8855 20.7182C12.0811 20.5362 12.2048 20.2898 12.2339 20.0242L12.4407 18.1028C12.4569 17.943 12.5153 17.7905 12.6099 17.6608L13.2755 16.7485C13.3787 16.6031 13.4346 16.4294 13.4356 16.2511V15.87C13.4338 15.7603 13.507 15.6635 13.613 15.6353L14.2492 15.4704C14.4851 15.4084 14.682 15.2463 14.7882 15.0267L14.968 14.6578C14.9983 14.6006 15.021 14.5396 15.0354 14.4765L15.2689 13.5097C15.2879 13.43 15.3455 13.3652 15.4224 13.337L15.8182 13.2021C16.0955 13.1067 16.3023 12.8727 16.3629 12.5858L16.7924 10.6102C16.8844 10.1813 17.0276 9.7651 17.219 9.37047L17.6143 8.55281C17.7177 8.34057 17.7287 8.09497 17.6446 7.87433ZM13.5009 3.60008C14.3293 3.60008 15.0009 4.27167 15.0009 5.10009C15.0009 5.92851 14.3294 6.60009 13.5009 6.60009C12.6725 6.60009 12.0009 5.92851 12.0009 5.10009C12.0019 4.27206 12.6729 3.60103 13.5009 3.60008ZM13.8009 7.20007V10.8001C13.8009 10.9657 13.6666 11.1 13.5009 11.1C13.3352 11.1 13.2009 10.9657 13.2009 10.8001V7.20007H13.8009ZM17.0747 8.29047L16.6786 9.10961C16.4665 9.54727 16.3077 10.0088 16.2057 10.4844L15.7762 12.4606C15.7605 12.5413 15.7028 12.6074 15.6251 12.634L15.2262 12.77C14.957 12.8649 14.7539 13.0893 14.6861 13.3666L14.4524 14.3338C14.449 14.3507 14.4431 14.367 14.4351 14.3823L14.2491 14.7631C14.2197 14.8253 14.1647 14.8715 14.0983 14.8897L13.4639 15.0542C13.0923 15.15 12.8334 15.4862 12.8355 15.87V16.2509C12.835 16.3036 12.8185 16.355 12.7883 16.3982L12.1259 17.3061C11.9696 17.5208 11.8725 17.7728 11.8442 18.0369L11.6375 19.9568C11.6242 20.0793 11.5677 20.193 11.4782 20.2775C11.3916 20.3564 11.2786 20.4001 11.1615 20.4C10.9483 20.3974 10.7624 20.2543 10.7055 20.0489L9.92457 17.3761C9.92098 17.3627 9.91866 17.3489 9.91768 17.335L9.31739 11.7642C9.28705 11.4839 9.11749 11.2378 8.86637 11.1097L8.12928 10.7275C8.00845 10.6648 7.91265 10.5627 7.8577 10.4382L6.95155 8.33762C6.85364 8.11093 6.90114 7.84768 7.0721 7.66951L7.41312 7.31647C7.60089 7.12417 7.68572 6.85385 7.64149 6.58874L7.49134 5.64845C7.42873 5.26968 7.54886 4.8836 7.81538 4.60723L8.45184 3.95273C8.66823 3.72689 8.96758 3.59941 9.28037 3.60001H10.2885C10.6015 3.59948 10.9011 3.72717 11.1176 3.95333L11.5313 4.3783C11.1537 5.39579 11.6186 6.53298 12.6009 6.99451V10.8C12.6009 11.297 13.0038 11.7 13.5009 11.7C13.9979 11.7 14.4009 11.2971 14.4009 10.8V6.99455C14.433 6.97922 14.4658 6.96505 14.497 6.94814C14.5043 6.94916 14.5114 6.9506 14.5185 6.95246L16.9558 7.95487C17.0152 7.97959 17.0617 8.02793 17.084 8.08832C17.1092 8.1541 17.1058 8.22733 17.0747 8.29047Z" fill="#5CE5BD" stroke="#5CE5BD" stroke-width="0.5"/>
</svg>
