<svg width="32" height="32" viewBox="0 0 32 32" fill="none" xmlns="http://www.w3.org/2000/svg">
<path d="M24.4 6.66666H7.6C6.64522 6.66666 5.72955 7.03541 5.05442 7.69179C4.37928 8.34817 4 9.23841 4 10.1667V21.8333C4 22.7616 4.37928 23.6518 5.05442 24.3082C5.72955 24.9646 6.64522 25.3333 7.6 25.3333H24.4C25.3548 25.3333 26.2705 24.9646 26.9456 24.3082C27.6207 23.6518 28 22.7616 28 21.8333V10.1667C28 9.23841 27.6207 8.34817 26.9456 7.69179C26.2705 7.03541 25.3548 6.66666 24.4 6.66666ZM23.596 9L16 14.5417L8.404 9H23.596ZM24.4 23H7.6C7.28174 23 6.97652 22.8771 6.75147 22.6583C6.52643 22.4395 6.4 22.1428 6.4 21.8333V10.4583L15.28 16.9333C15.4877 17.0848 15.7404 17.1667 16 17.1667C16.2596 17.1667 16.5123 17.0848 16.72 16.9333L25.6 10.4583V21.8333C25.6 22.1428 25.4736 22.4395 25.2485 22.6583C25.0235 22.8771 24.7183 23 24.4 23Z" fill="white"/>
</svg>
