<svg width="24" height="24" viewBox="0 0 24 24" fill="none" xmlns="http://www.w3.org/2000/svg">
<path d="M20.6013 6.05043C21.129 4.79711 21.1354 3.90039 20.6202 3.38522C20.1074 2.87238 19.2077 2.87157 17.9461 3.38294C17.0917 3.72927 16.1963 4.26982 15.7687 4.69744C15.7664 4.69962 15.7643 4.70183 15.7621 4.70401L14.2816 6.22398L12.5106 5.88585L12.7498 5.64665C13.0244 5.37202 13.0244 4.92678 12.7498 4.65218C12.4752 4.37755 12.0299 4.37755 11.7553 4.65218L10.8405 5.56698L9.55828 5.32216L9.58539 5.29505C9.85999 5.02042 9.85999 4.57518 9.58539 4.30058C9.31075 4.02595 8.86549 4.02595 8.59088 4.30058L7.88817 5.00329L7.002 4.8341C6.33905 4.70753 5.65016 4.90836 5.15912 5.37135L3.22077 7.19894C2.93823 7.46538 2.92515 7.9104 3.19155 8.19299C3.32991 8.33971 3.5164 8.41379 3.70335 8.41379C3.87637 8.41379 4.04978 8.35029 4.18564 8.22224L4.5481 7.88048L9.8185 10.4967L6.76418 13.5723L5.45752 13.5138C5.44613 13.5133 5.43495 13.5131 5.42355 13.5131C4.58488 13.5131 3.77236 13.8613 3.19398 14.4686C3.03787 14.6326 2.97022 14.8617 3.01224 15.0842C3.05425 15.3066 3.20084 15.4953 3.40603 15.5909L6.80707 17.1768L8.52397 20.6123C8.6264 20.8172 8.8222 20.9594 9.04881 20.9933C9.08362 20.9986 9.11839 21.0011 9.15306 21.0011C9.34402 21.0011 9.52857 20.9233 9.66228 20.7828L9.71007 20.7326C10.2578 20.1575 10.5594 19.4035 10.5594 18.6093V16.9655L13.5718 13.9367L14.9745 16.9389C15.1389 17.2908 15.5575 17.4427 15.9092 17.2783C16.2611 17.114 16.4131 16.6954 16.2487 16.3436L14.42 12.4296C14.3227 12.2215 14.13 12.074 13.9038 12.0345C13.6777 11.995 13.4463 12.0685 13.2843 12.2314L9.35762 16.1795C9.22654 16.3113 9.15303 16.4895 9.15303 16.6754V18.6093C9.15303 18.6457 9.15187 18.6819 9.14954 18.7179L7.95551 16.3287C7.88448 16.1866 7.76754 16.0728 7.62367 16.0057L5.30359 14.9239C5.33938 14.9213 5.37528 14.9198 5.41132 14.9195L7.0123 14.9912C7.21131 15.0004 7.403 14.9249 7.54273 14.7842L11.4928 10.8066C11.5211 10.7793 11.5473 10.7494 11.5711 10.717C11.5723 10.7154 11.5735 10.7138 11.5747 10.7121C11.5751 10.7115 11.5755 10.7109 11.576 10.7103C11.6267 10.6398 11.6628 10.5621 11.6842 10.4812C11.7094 10.3869 11.7141 10.2903 11.7002 10.1971C11.7001 10.1966 11.7001 10.1961 11.7 10.1955C11.6997 10.1937 11.6994 10.1919 11.6991 10.1902C11.6832 10.0891 11.6452 9.9909 11.5851 9.90328C11.5394 9.83637 11.4818 9.77674 11.4133 9.72794C11.4121 9.72713 11.411 9.72628 11.4098 9.72547C11.4096 9.72537 11.4095 9.72523 11.4093 9.72512C11.3754 9.70118 11.3398 9.68061 11.3031 9.66342L5.63898 6.85187L6.12398 6.39458C6.28765 6.24023 6.51728 6.17335 6.73826 6.21547L14.2924 7.65781C14.5404 7.74079 14.8251 7.68151 15.0198 7.48166L16.766 5.68909C16.9954 5.46132 17.5912 5.07157 18.2909 4.76392C18.9992 4.45247 19.4204 4.39805 19.597 4.40547C19.6014 4.58035 19.5406 4.99661 19.2225 5.69282C18.9077 6.38199 18.5092 6.9763 18.2783 7.20717C18.2767 7.20885 18.275 7.21054 18.2733 7.21226L16.5735 8.94713C16.3798 9.10514 16.2767 9.36167 16.3268 9.62442L17.7856 17.2628C17.8278 17.4837 17.7608 17.7134 17.6065 17.8771L15.7789 19.8155C15.5125 20.0981 15.5256 20.5431 15.8081 20.8095C15.944 20.9376 16.1173 21.0011 16.2904 21.0011C16.4773 21.0011 16.6638 20.927 16.8022 20.7803L18.6298 18.8419C19.0928 18.3508 19.2936 17.6619 19.1671 16.9989L18.9977 16.1123L19.7002 15.4098C19.9748 15.1351 19.9748 14.6899 19.7002 14.4153C19.4256 14.1407 18.9803 14.1407 18.7057 14.4153L18.6788 14.4422L18.4339 13.1601L19.3486 12.2454C19.6232 11.9708 19.6232 11.5255 19.3486 11.2509C19.074 10.9763 18.6287 10.9763 18.3541 11.2509L18.115 11.4901L17.7783 9.72706L19.2756 8.19889C19.7051 7.76797 20.2498 6.88534 20.6013 6.05043Z" fill="#5CE5BD"/>
</svg>
