<svg width="24" height="24" viewBox="0 0 24 24" fill="none" xmlns="http://www.w3.org/2000/svg">
<path d="M21.9886 7.65672C21.9437 7.41508 21.7701 7.21741 21.5363 7.14163L19.4744 6.48747C19.1057 6.36747 18.7221 6.29911 18.3347 6.28434L16.4945 6.20883C16.8807 5.25599 16.5975 4.16272 15.7973 3.5172C14.9971 2.87167 13.8687 2.82604 13.0191 3.40493C12.1695 3.98381 11.799 5.05068 12.107 6.03156L10.8546 5.98035C10.7552 5.97547 10.658 5.94894 10.5698 5.90257L10.4181 5.82152C10.1736 5.69019 9.89351 5.64026 9.61862 5.67893L7.69701 5.93285C7.36086 5.97344 7.10812 6.25883 7.10844 6.59744L7.09836 6.97913H6.68491C6.44939 6.98045 6.23079 7.10159 6.10481 7.30058L5.98567 7.49266C5.67293 7.98986 5.59402 8.59925 5.76984 9.15969L6.07227 10.1413L5.78059 10.2422C5.59953 10.3058 5.45417 10.4437 5.38116 10.6211C5.30999 10.7936 5.31542 10.9881 5.39612 11.1563L6.2715 13.0432L5.65168 13.0389L4.61911 12.2182C4.44461 12.0806 4.21382 12.0372 4.00124 12.102L2.47159 12.5637C2.25104 12.6329 2.08142 12.8105 2.02236 13.0339C1.96329 13.2573 2.02302 13.4955 2.18057 13.6647L2.39085 13.8891C2.46546 13.9635 2.55499 14.0212 2.65355 14.0585L3.30396 14.2921V14.9871C3.30446 15.0856 3.32552 15.1829 3.36579 15.2728L4.79911 18.3152C4.93521 18.6086 5.25944 18.7653 5.57386 18.6896L7.59278 18.2146C7.82424 18.1587 8.00854 17.984 8.07674 17.7559C8.14491 17.5277 8.0867 17.2805 7.92385 17.1068L6.79589 15.9094L6.68131 15.3465L10.0281 16.9889L10.6518 18.7605C10.7443 19.02 10.9842 19.198 11.2593 19.2113C11.5343 19.2246 11.7903 19.0706 11.9074 18.8212L12.1515 18.3022C12.1587 18.289 12.1645 18.2808 12.1639 18.2808L12.1635 18.2812L13.3849 17.0129L13.7756 17.8459C13.8051 17.9127 13.8464 17.9737 13.8976 18.0258L14.426 18.5904L14.6994 20.0445C14.7324 20.2165 14.8322 20.3684 14.9771 20.4667L15.5702 20.8774C15.8036 21.041 16.1145 21.041 16.3479 20.8772C16.5791 20.7197 16.6867 20.434 16.6167 20.163L16.5071 19.7382L16.5171 19.1026L16.7834 19.1016L16.8697 19.1467C17.0814 19.2549 17.3343 19.2449 17.5367 19.1202C17.7363 18.999 17.8581 18.7822 17.8577 18.5487V18.2447C17.8575 18.0539 17.7766 17.872 17.635 17.7441L16.6558 16.8714L17.7626 16.4772C18.058 16.374 18.243 16.0805 18.2086 15.7695L17.982 13.8622C17.9502 13.5887 18.0035 13.3121 18.1347 13.07L18.6913 12.0342C19.0325 11.3989 19.0065 10.6293 18.6233 10.0185L18.2043 9.3297H18.8779C19.0075 9.32927 19.1254 9.40454 19.1796 9.52224L19.2604 9.69365C19.3328 9.84764 19.4614 9.96815 19.6198 10.0304L20.7383 10.4823C21.0023 10.5891 21.3049 10.5191 21.4951 10.3071C21.6833 10.1028 21.7233 9.80264 21.5954 9.55615L21.1823 8.75273L21.7517 8.30006C21.9427 8.14521 22.0336 7.89837 21.9886 7.65672ZM14.3333 3.66611C15.2538 3.66611 16 4.4123 16 5.33283C16 6.25336 15.2538 6.99956 14.3333 6.99956C13.4128 6.99956 12.6666 6.25333 12.6666 5.33283C12.6677 4.41277 13.4133 3.6672 14.3333 3.66611ZM14.6667 7.66622V11.6663C14.6667 11.8504 14.5174 11.9997 14.3333 11.9997C14.1492 11.9997 14 11.8504 14 11.6663V7.66622H14.6667ZM20.7694 8.22955C20.5202 8.42807 20.4459 8.7748 20.5916 9.05801L20.9868 9.86339L19.8634 9.40912L19.783 9.23852C19.6176 8.8882 19.2655 8.66425 18.8781 8.663H18.2045C17.958 8.66292 17.7308 8.79675 17.6114 9.01246C17.494 9.22411 17.5007 9.48287 17.629 9.68811L18.0594 10.3735C18.315 10.7812 18.3321 11.2948 18.1043 11.7186L17.5476 12.7542C17.3514 13.1168 17.2719 13.5311 17.3201 13.9405L17.5392 15.8491L16.4356 16.2422C16.2109 16.3197 16.0442 16.5108 15.9977 16.7439C15.9513 16.9771 16.0321 17.2174 16.21 17.3752L17.1912 18.2446L17.1749 18.5539L17.0789 18.5041C16.9846 18.4594 16.8817 18.4361 16.7774 18.4359H16.5173C16.1454 18.4347 15.8427 18.7347 15.8406 19.1066V19.7382C15.8408 19.7932 15.8477 19.848 15.8611 19.9014L15.9502 20.3293L15.3545 19.9203L15.0827 18.4763C15.0614 18.3465 15.0023 18.2258 14.9128 18.1294L14.3818 17.5687L13.987 16.7262C13.8891 16.5238 13.698 16.3822 13.4758 16.3476C13.2536 16.313 13.0285 16.3897 12.8737 16.5529L11.6692 17.8343C11.6258 17.8846 11.5885 17.9399 11.5582 17.999L11.2805 18.5383L10.6562 16.7645C10.5978 16.5996 10.4767 16.4644 10.3192 16.3883L6.97734 14.7491C6.74077 14.6285 6.45545 14.6579 6.24849 14.8243C6.04466 14.9832 5.9527 15.2468 6.01344 15.498L6.14692 16.0622C6.17357 16.1766 6.22943 16.2821 6.30904 16.3685L7.43895 17.5659L5.40276 18.0324L3.97077 14.9871V14.2921C3.97171 14.0062 3.7912 13.7511 3.52123 13.6568L2.87051 13.426L2.66706 13.2013L4.20715 12.7421L5.23128 13.5559C5.35268 13.6551 5.50452 13.7095 5.66129 13.7099H6.27166C6.50326 13.7108 6.71925 13.5931 6.84394 13.3979C6.96714 13.2057 6.98324 12.9637 6.88659 12.7569L6.00055 10.8718L6.29615 10.7694C6.63471 10.6485 6.81839 10.2827 6.71315 9.93897L6.40619 8.96027C6.28884 8.58538 6.34189 8.17783 6.55139 7.84548L6.68518 7.64579H7.09859C7.47052 7.64696 7.77322 7.34695 7.77537 6.97503L7.78545 6.59369L9.71062 6.33927C9.84644 6.31985 9.98492 6.34473 10.1055 6.41024L10.2575 6.49146C10.4333 6.58408 10.6273 6.63697 10.8258 6.64642L12.4563 6.71306C12.6847 7.02303 12.9859 7.27199 13.3334 7.43793V11.6663C13.3334 12.2186 13.7811 12.6664 14.3334 12.6664C14.8858 12.6664 15.3335 12.2186 15.3335 11.6663V7.43785C15.6251 7.29882 15.8849 7.10101 16.0964 6.85678C16.1014 6.85721 16.1054 6.86002 16.1105 6.86022L18.3088 6.95057C18.6358 6.96307 18.9595 7.02085 19.2707 7.12229L21.3349 7.77985L20.7694 8.22955Z" fill="#294966" stroke="#294966" stroke-width="0.5"/>
</svg>
