<svg width="24" height="24" viewBox="0 0 24 24" fill="none" xmlns="http://www.w3.org/2000/svg">
<path d="M22.8746 11.316L21.9867 9.97105C21.8997 9.83955 21.9042 9.66769 21.998 9.54098L22.7915 8.46272C22.9514 8.25054 22.9854 7.96896 22.8805 7.72485C22.7756 7.4767 22.5459 7.30374 22.2784 7.27172L21.2367 7.14162C21.0598 7.11615 20.8797 7.12559 20.7064 7.16943L18.0762 7.76495C17.7481 7.83966 17.4239 7.93075 17.1048 8.03801L16.1229 8.36948V8.00028C17.1286 7.52497 17.7257 6.46753 17.6134 5.36081C17.501 4.25409 16.7034 3.3383 15.6227 3.07486C14.5419 2.81142 13.4125 3.25757 12.8034 4.18843C12.1944 5.11929 12.238 6.33291 12.9122 7.21769L10.4845 6.76755C10.2972 6.73773 10.1055 6.778 9.94608 6.88065L7.26362 8.64354C7.19993 8.68724 7.14266 8.73955 7.09342 8.79907L6.40277 9.65864C6.15163 9.97268 6.07621 10.3923 6.20227 10.7742C6.32832 11.156 6.6388 11.4483 7.02754 11.5511C7.07172 11.5626 7.11367 11.5815 7.15162 11.6069L7.2962 11.9436C7.31759 11.9935 7.34952 12.0382 7.38989 12.0745C7.68297 12.3393 8.09311 12.4317 8.47144 12.3182C8.84125 12.2128 9.12981 11.9229 9.23347 11.5525L9.45856 10.863C9.55708 10.5608 9.77734 10.3136 10.0661 10.1811L10.6426 9.92577V10.6378C10.6437 10.9201 10.8028 11.178 11.0547 11.3056L12.3123 11.9439L10.1766 12.7563C10.1565 12.7627 10.1429 12.7687 10.1455 12.7695C10.1265 12.7755 10.108 12.7831 10.0903 12.7924L8.98786 13.3547C8.83313 13.4327 8.65665 13.4564 8.48681 13.4223L7.74455 13.2722C7.18653 13.1601 6.60673 13.2611 6.11948 13.5553L4.90361 14.2937L2.87482 15.4726C2.39362 15.7513 2.18741 16.3392 2.38914 16.8574L2.55385 17.2759C2.59491 17.3818 2.58582 17.5005 2.52916 17.5989C2.47251 17.6973 2.3743 17.7647 2.26212 17.7823L1.69849 17.8793C1.40303 17.9273 1.13911 18.0917 0.965755 18.3357C0.792356 18.576 0.722521 18.8758 0.771757 19.168L0.917794 20.0566C1.00616 20.6017 1.47761 21.0016 2.02974 20.9998H3.23282C3.58998 21.0009 3.9262 20.8316 4.13794 20.544L4.86189 19.5622C4.9337 19.4682 5.02532 19.3912 5.13016 19.3366L5.9112 18.9404C6.10757 18.8425 6.33645 18.8333 6.54002 18.9151L9.24699 20.0118C9.47723 20.1074 9.74001 20.0811 9.94679 19.9419C10.1569 19.8019 10.2831 19.566 10.2828 19.3135V19.2235C10.2858 19.0893 10.2487 18.9573 10.1763 18.8443L9.97569 18.4961L10.1148 18.5899C10.5377 18.8757 10.9093 19.2308 11.2139 19.6404L11.536 20.0787C11.8009 20.4402 12.256 20.6089 12.6925 20.5072L15.0672 19.9747C15.5024 19.8751 15.8382 19.5287 15.924 19.0906L15.9954 18.7323C16.0811 18.3041 16.4579 17.9964 16.8947 17.9981C17.0884 17.9986 17.2773 18.0589 17.4356 18.1705L19.3616 19.564C19.6476 19.7728 20.0071 19.8545 20.3553 19.7899C20.3637 19.7886 20.3718 19.7873 20.3798 19.7857C20.8173 19.6967 21.1774 19.3871 21.3309 18.9678C21.4844 18.5486 21.4093 18.0797 21.1326 17.7293L20.7901 17.2895L22.4829 15.7911C22.9671 15.3643 23.2444 14.7498 23.2438 14.1043V12.5528C23.2447 12.1133 23.1163 11.6832 22.8746 11.316ZM14.9985 3.75958C16.0335 3.75958 16.8725 4.59856 16.8725 5.63356C16.8725 6.66851 16.0335 7.50753 14.9985 7.50753C13.9636 7.50753 13.1245 6.66855 13.1245 5.63356C13.1258 4.59904 13.9641 3.76077 14.9985 3.75958ZM15.3733 8.25708V12.7546C15.3733 12.9616 15.2055 13.1294 14.9985 13.1294C14.7915 13.1294 14.6237 12.9616 14.6237 12.7546V8.25708H15.3733ZM22.4944 14.1044C22.4949 14.5348 22.3101 14.9446 21.9871 15.229L20.284 16.7365C19.9956 17.0037 19.9598 17.4474 20.2017 17.7573L20.5446 18.194C20.6619 18.3383 20.6936 18.5341 20.6277 18.708C20.5666 18.8789 20.4228 19.0069 20.246 19.0478C20.239 19.0488 20.232 19.05 20.2248 19.0515C20.0767 19.0813 19.9231 19.0471 19.8017 18.9574L17.8728 17.5616C17.5869 17.359 17.2453 17.2497 16.8948 17.2485C16.0998 17.2469 15.4148 17.8083 15.2602 18.5881L15.1889 18.9464C15.1599 19.0935 15.0473 19.2099 14.9012 19.2438L12.5265 19.7765C12.3811 19.8108 12.2292 19.755 12.1404 19.6349L11.8165 19.1944C11.4612 18.7163 11.0276 18.3019 10.534 17.9686L10.3934 17.8737C10.1011 17.6717 9.70667 17.7047 9.45206 17.9526C9.19591 18.1896 9.14286 18.5745 9.32544 18.872L9.53331 19.2235L9.53187 19.3185L6.82414 18.2214C6.4202 18.0557 5.96413 18.0738 5.57459 18.271L4.78986 18.6688C4.58268 18.7756 4.40217 18.9276 4.26171 19.1135L3.53592 20.0974C3.46503 20.1937 3.3525 20.2506 3.23286 20.2503H2.02978C1.84496 20.2509 1.68711 20.1172 1.6572 19.9349L1.51116 19.0455C1.49518 18.9493 1.51837 18.8507 1.5756 18.7717C1.63423 18.6894 1.72357 18.6342 1.8234 18.6185L2.38743 18.5213C2.72206 18.4661 3.01392 18.2628 3.1817 17.968C3.34947 17.6733 3.3753 17.3185 3.25197 17.0026L3.08691 16.5835C3.01932 16.4109 3.0881 16.2148 3.24867 16.1223L5.28625 14.9383L6.50725 14.1969C6.83451 14.0015 7.22242 13.9338 7.59649 14.007L8.33471 14.1561C8.66895 14.2234 9.01606 14.1776 9.32148 14.026L10.417 13.4673L10.4235 13.4643L10.4312 13.4614L12.5834 12.6428C12.8615 12.5356 13.0493 12.2732 13.061 11.9753C13.077 11.6809 12.9163 11.4052 12.6522 11.2741L11.3924 10.6378V9.92568C11.3936 9.6727 11.2673 9.43614 11.0564 9.29634C10.8456 9.15654 10.5785 9.13234 10.346 9.23191L9.7534 9.49982C9.27629 9.72162 8.91197 10.1306 8.74652 10.63L8.51558 11.3386C8.48216 11.4646 8.38478 11.5637 8.25939 11.5992C8.15433 11.6312 8.04062 11.6165 7.9472 11.5587L7.8052 11.2282C7.78544 11.182 7.75658 11.1402 7.7203 11.1054C7.57954 10.9713 7.40697 10.8752 7.21886 10.826C7.07519 10.7897 6.96039 10.6819 6.91506 10.5408C6.86675 10.3994 6.89437 10.243 6.98828 10.1267L7.67783 9.26805L10.357 7.5059L13.8743 8.16002V12.7543C13.8743 13.3752 14.3777 13.8786 14.9987 13.8786C15.6197 13.8786 16.1231 13.3752 16.1231 12.7543V9.16005L17.3419 8.74869C17.6775 8.63836 17.963 8.5582 18.2408 8.49597L20.8826 7.89772C20.9654 7.87629 21.0517 7.87159 21.1363 7.88397L22.1889 8.01701L21.3958 9.09435C21.1153 9.47413 21.1012 9.98853 21.3607 10.3831L22.249 11.7283C22.4099 11.9731 22.4953 12.2597 22.4946 12.5525V14.1044H22.4944Z" fill="#5CE5BD" stroke="#5CE5BD" stroke-width="0.5"/>
<path d="M1.80164 13.2443L1.54505 13.7622C1.45339 13.9466 1.52796 14.1705 1.71195 14.2631L2.27743 14.5484C2.507 14.6652 2.78072 14.6546 3.00068 14.5206L4.56501 13.5736C4.73573 13.4709 4.8584 13.3043 4.90574 13.1108L5.24284 11.7503C5.28496 11.5805 5.20397 11.4041 5.04774 11.3254L4.40979 11.0037L4.17297 10.5257L4.46504 9.93586C4.55666 9.75135 4.48208 9.52753 4.29814 9.43481L3.6869 9.12662L3.44643 8.39845C3.34589 8.09061 3.05878 7.88234 2.73491 7.88239H2.25551C1.84086 7.88383 1.50556 8.22058 1.50592 8.63528V10.9038C1.50596 11.0026 1.54501 11.0974 1.61462 11.1675L1.88074 11.4363V11.5723L1.54509 12.2498C1.51922 12.3015 1.50583 12.3585 1.50592 12.4163V12.7895C1.50592 12.8874 1.5443 12.9815 1.61278 13.0516L1.80164 13.2443ZM2.25551 12.504L2.59116 11.8263C2.61703 11.7747 2.63047 11.7177 2.63033 11.66V11.2819C2.63029 11.1831 2.59125 11.0883 2.52163 11.0182L2.25551 10.7494V8.63185L2.7346 8.6333L3.02413 9.50895C3.05531 9.6032 3.12256 9.68121 3.21114 9.726L3.62839 9.93647L3.41902 10.3592C3.36693 10.464 3.3668 10.587 3.41863 10.6919L3.7934 11.4483C3.82959 11.521 3.88823 11.58 3.96065 11.6166L4.44304 11.86L4.17692 12.9323L2.61483 13.8793L2.3817 13.7617L2.59107 13.3388C2.66196 13.1961 2.63477 13.0242 2.52334 12.9103L2.25543 12.6366V12.504H2.25551Z" fill="#5CE5BD" stroke="#5CE5BD" stroke-width="0.5"/>
</svg>
