<svg width="24" height="24" viewBox="0 0 24 24" fill="none" xmlns="http://www.w3.org/2000/svg">
<path d="M22.2288 7.06336C22.1026 6.90177 21.9091 6.80715 21.7041 6.80683L20.9565 6.81238L20.1806 5.98516C20.0249 5.81672 19.7933 5.74068 19.568 5.78407L16.5328 6.37249C16.0781 6.47421 15.7691 6.89707 15.8103 7.36118C15.8515 7.82528 16.2302 8.18706 16.6957 8.20706H16.914C16.9709 8.20795 17.0248 8.23257 17.0626 8.27499C17.1096 8.32719 17.1354 8.39517 17.1347 8.46545L17.1487 8.93118H17.0426C16.5325 8.94254 16.128 9.36487 16.1386 9.87501C16.133 10.2975 16.4116 10.6712 16.8182 10.7866L17.3589 10.9307C17.4401 10.9524 17.5237 10.9633 17.6077 10.9633C17.8822 10.9623 18.144 10.8477 18.3311 10.6468L19.031 9.90036L19.0427 9.95747C19.0856 10.174 19.2282 10.3576 19.4275 10.4524C19.6179 10.5417 19.8395 10.5345 20.0237 10.433L20.5762 10.1312C20.7716 10.0229 20.927 9.85465 21.0194 9.65125L21.3408 8.91512H21.5381C21.8557 8.91224 22.1292 8.6901 22.1971 8.37975L22.3631 7.67185C22.4142 7.45916 22.3647 7.2348 22.2288 7.06336ZM21.5382 8.223H21.341C21.0757 8.22559 20.8361 8.38231 20.7275 8.62436L20.3899 9.36369C20.3598 9.4313 20.3088 9.48748 20.2443 9.5239L19.7211 9.81997L19.6861 9.64776C19.6807 9.62087 19.6721 9.59471 19.6605 9.56985C19.5661 9.36471 19.3761 9.21979 19.1533 9.18305C18.9347 9.1489 18.7134 9.22567 18.5629 9.38787L17.8264 10.1733C17.7541 10.2545 17.6426 10.2886 17.5373 10.2619L16.9965 10.1177C16.8928 10.0817 16.8253 9.9816 16.8309 9.87197C16.8217 9.74518 16.916 9.63446 17.0426 9.62339H17.1488C17.5291 9.61678 17.8325 9.30367 17.827 8.92327V8.46545C17.8283 8.21906 17.7355 7.98147 17.5674 7.80131C17.3983 7.61998 17.162 7.51635 16.9141 7.51485H16.6958C16.5776 7.50398 16.49 7.40032 16.4989 7.28197C16.4937 7.17611 16.5624 7.08072 16.6645 7.05212L19.6758 6.45864L20.4514 7.2857C20.5776 7.42088 20.7539 7.49806 20.9388 7.49895L21.6893 7.51384L21.5382 8.223Z" fill="#294966" stroke="#294966" stroke-width="0.5"/>
<path d="M14.9151 10.6844C14.7171 10.4205 14.4067 10.2651 14.0769 10.2647H13.7272C13.3976 10.2651 13.0873 10.4204 12.8894 10.684L12.3375 11.41L12.0135 10.9162L12.183 10.4941C12.3247 10.1426 12.2656 9.7421 12.0285 9.44652C11.7914 9.15097 11.4132 9.00638 11.0395 9.06843L10.2753 9.19347L9.29391 8.70459C9.16672 8.63957 9.02724 8.6021 8.8846 8.59459V7.61158C9.90824 7.12602 10.4587 5.99583 10.2098 4.89054C9.96097 3.78525 8.9793 3 7.84631 3C6.71332 3 5.73165 3.78525 5.48278 4.89054C5.23392 5.99583 5.78433 7.12602 6.80802 7.61158V8.8626L6.38552 8.65052C6.17746 8.54665 5.94064 8.51542 5.71275 8.56182L4.23797 8.85737C4.17539 8.87083 4.11504 8.8931 4.05866 8.92344L2.09228 9.95682C1.68585 10.1691 1.50926 10.657 1.68552 11.0803C1.69274 11.0977 1.70146 11.1144 1.71156 11.1303C1.87651 11.4589 2.22787 11.6509 2.59354 11.6122L4.69461 11.377C4.88305 11.3559 5.05445 11.4874 5.0828 11.6749L5.25618 12.7146C5.28563 12.8917 5.24641 13.0733 5.14651 13.2226L4.29362 14.5052C4.02123 14.9212 4.07578 15.4707 4.42458 15.8251L5.38074 16.7836L5.3811 16.7843L6.69924 19.4236C6.7733 19.5678 6.89465 19.6821 7.04297 19.7475L9.03 20.9058C9.13691 20.9675 9.25822 21 9.38168 20.9999C9.6421 21.0001 9.8807 20.8545 9.9995 20.6227L10.3733 19.8959C10.3985 19.8469 10.4117 19.7926 10.4117 19.7375C10.4119 19.4814 10.2705 19.2462 10.0443 19.1261L9.51876 18.8204V18.3359C9.51832 17.95 9.20557 17.6372 8.81966 17.6368L8.56329 17.6319L8.67455 17.193C8.71271 17.0349 8.85418 16.9237 9.01677 16.9237H10.5259C10.8936 16.9225 11.2341 16.7302 11.4251 16.4159L12.1365 15.2246C12.1816 15.1516 12.2504 15.0963 12.3313 15.068L13.7485 14.5945C13.9405 14.5319 14.0957 14.389 14.1741 14.203C14.2525 14.0169 14.2463 13.8061 14.1572 13.6249L14.1322 13.4554C14.1127 13.3201 14.1722 13.1855 14.2853 13.1087L14.9045 12.688C15.1749 12.5444 15.3689 12.2896 15.4355 11.9908C15.5021 11.6919 15.4346 11.3789 15.2508 11.134L14.9151 10.6844ZM6.11581 5.42599C6.11581 4.47027 6.89055 3.69549 7.84631 3.69549C8.80202 3.69549 9.5768 4.47023 9.5768 5.42599C9.5768 6.38174 8.80202 7.15648 7.84631 7.15648C6.89104 7.15534 6.11695 6.38125 6.11581 5.42599ZM8.19239 7.84865V12.0018C8.19239 12.193 8.03742 12.3479 7.84631 12.3479C7.65516 12.3479 7.50022 12.193 7.50022 12.0018V7.84865H8.19239ZM14.7585 11.8462C14.7353 11.9479 14.6674 12.0337 14.5738 12.0797C14.5597 12.0867 14.5461 12.0947 14.533 12.1036L13.8977 12.5351C13.5654 12.7612 13.3906 13.1567 13.4472 13.5547L13.4819 13.7899C13.4873 13.8421 13.504 13.8925 13.5311 13.9375L12.108 14.413C11.873 14.4944 11.6736 14.6549 11.5439 14.8671L10.832 16.0592C10.7668 16.1659 10.6509 16.2312 10.5259 16.2316H9.01682C8.53616 16.2306 8.11728 16.5586 8.00302 17.0255L7.89202 17.4628C7.84034 17.6714 7.88756 17.8921 8.02006 18.0613C8.15252 18.2305 8.35552 18.3292 8.57039 18.3291L8.8266 18.336V18.8205C8.82506 19.0779 8.9666 19.3148 9.19397 19.4355L9.68558 19.7181L9.37803 20.3075L7.37072 19.1376C7.35316 19.1265 7.33475 19.1169 7.31564 19.1088L6.01271 16.5025C5.98177 16.4235 5.93302 16.3526 5.87027 16.2955L4.9146 15.3363C4.79646 15.2151 4.77861 15.028 4.87169 14.8866L5.72203 13.6073C5.91975 13.3111 5.99726 12.9508 5.93886 12.5995L5.76616 11.5639C5.67916 11.0119 5.1728 10.6264 4.61751 10.6893L2.51895 10.9243C2.43808 10.9339 2.36049 10.8893 2.32817 10.8146C2.32427 10.8051 2.31989 10.796 2.31515 10.787C2.29183 10.7013 2.33222 10.611 2.41164 10.5712L4.38122 9.53465L5.85044 9.24028C5.92657 9.2247 6.0057 9.23492 6.07538 9.26936L6.80814 9.63722V12.002C6.80814 12.5754 7.27298 13.0403 7.84643 13.0403C8.41984 13.0403 8.88472 12.5754 8.88472 12.002V9.29669C8.91765 9.3003 8.94989 9.30878 8.98035 9.32176L9.95967 9.80963C10.0932 9.87785 10.2448 9.90227 10.393 9.87943L11.1538 9.75135C11.2802 9.72872 11.4087 9.77771 11.4879 9.87878C11.5702 9.97904 11.5905 10.1166 11.5406 10.2364L11.3682 10.666C11.2856 10.8771 11.3117 11.1153 11.438 11.3036L11.7616 11.794C11.8885 11.9823 12.0986 12.0976 12.3256 12.1036C12.5511 12.1101 12.7656 12.0063 12.9005 11.8255L13.4441 11.0983C13.5111 11.0093 13.616 10.9571 13.7273 10.9572H14.077C14.1883 10.9571 14.2933 11.0094 14.3602 11.0984L14.6968 11.5493C14.7606 11.634 14.7832 11.7429 14.7585 11.8462Z" fill="#294966" stroke="#294966" stroke-width="0.5"/>
</svg>
