<svg width="24" height="24" viewBox="0 0 24 24" fill="none" xmlns="http://www.w3.org/2000/svg">
<path d="M17.7501 10.1472V11.358C17.7501 11.6842 18.0298 11.9487 18.375 11.9487C18.7202 11.9487 19 11.6842 19 11.358V7.75606C19 6.45329 17.8785 5.39332 16.5001 5.39332H13.8102V4.62325C13.8102 3.72819 13.0397 3 12.0926 3H9.90736C8.96028 3 8.18977 3.72819 8.18977 4.62325V5.39332H5.49995C4.12145 5.39332 3 6.45318 3 7.75595V14.6373C3 15.94 4.12145 17 5.49995 17H10.7813C11.1265 17 11.4063 16.7355 11.4063 16.4093C11.4063 16.0831 11.1265 15.8186 10.7813 15.8186H5.49995C4.81076 15.8186 4.25003 15.2887 4.25003 14.6373V10.1472H10.4063V11.0343C10.4063 11.3604 10.6861 11.6249 11.0313 11.6249C11.3765 11.6249 11.6562 11.3604 11.6562 11.0343V10.1472H17.7501ZM9.43981 4.62325C9.43981 4.37963 9.64959 4.18137 9.90736 4.18137H12.0926C12.3504 4.18137 12.5602 4.37952 12.5602 4.62325V5.39332H9.43981V4.62325ZM4.25003 7.75606C4.25003 7.10462 4.81076 6.57469 5.49995 6.57469H16.5001C17.1892 6.57469 17.7501 7.10462 17.7501 7.75606V8.96582H4.25003V7.75606Z" fill="#294966"/>
<path d="M19.8284 14.1716C19.0729 13.4161 18.0684 13 17 13C15.9316 13 14.9271 13.4161 14.1716 14.1716C13.4161 14.9271 13 15.9316 13 17C13 18.0684 13.4161 19.0729 14.1716 19.8284C14.9271 20.5839 15.9316 21 17 21C17.9943 21 18.9474 20.6328 19.6838 19.966C19.8118 19.8502 19.8215 19.6526 19.7057 19.5246C19.689 19.5062 19.6705 19.4905 19.6508 19.4769C19.4504 19.2864 19.2339 19.1194 19.0046 18.9775C19.1668 18.4711 19.2645 17.9045 19.29 17.3125H20.3607C20.3333 17.6123 20.2663 17.9053 20.1605 18.187C20.0997 18.3485 20.1815 18.5287 20.3431 18.5894C20.5046 18.6501 20.6848 18.5684 20.7455 18.4068C20.9144 17.9574 21 17.4841 21 17C21 15.9316 20.5839 14.9271 19.8284 14.1716ZM20.3604 16.6875H19.29C19.2645 16.0954 19.1667 15.5286 19.0045 15.0221C19.163 14.9241 19.3155 14.8141 19.4607 14.6927C19.9604 15.2253 20.2896 15.9195 20.3604 16.6875ZM15.3217 19.7556C15.3694 19.8443 15.4193 19.9284 15.4709 20.0082C15.3107 19.9265 15.1578 19.8321 15.0135 19.7267C15.0834 19.6716 15.1552 19.6197 15.2285 19.5708C15.2584 19.6339 15.2894 19.6956 15.3217 19.7556ZM15.78 19.2755C16.0692 19.1552 16.3743 19.0777 16.6875 19.0467V20.3095C16.3904 20.1859 16.1042 19.8909 15.872 19.4594C15.84 19.3999 15.8094 19.3386 15.78 19.2755ZM17.3125 20.3095V19.0466C17.626 19.0776 17.9312 19.155 18.2201 19.2753C18.1907 19.3384 18.16 19.3998 18.128 19.4594C17.8958 19.8909 17.6096 20.1859 17.3125 20.3095ZM16.6875 18.4194C16.2983 18.4514 15.9188 18.543 15.5602 18.6899C15.4351 18.2694 15.3585 17.8022 15.3355 17.3125H16.6875V18.4194ZM15.3355 16.6875C15.3585 16.1978 15.4351 15.7306 15.5602 15.3102C15.9188 15.457 16.2983 15.5486 16.6875 15.5807V16.6875H15.3355ZM17.3125 13.6905C17.6096 13.8141 17.8958 14.109 18.128 14.5406C18.1599 14.6 18.1906 14.6613 18.2198 14.7242C17.9307 14.8447 17.6255 14.9222 17.3125 14.9532V13.6905ZM18.6783 14.2444C18.6306 14.1557 18.5807 14.0716 18.5291 13.9918C18.6892 14.0735 18.842 14.1678 18.9862 14.2731C18.9164 14.3282 18.8448 14.3802 18.7715 14.4291C18.7416 14.3661 18.7106 14.3044 18.6783 14.2444ZM15.2285 14.4292C15.1551 14.3803 15.0833 14.3284 15.0135 14.2733C15.1578 14.1679 15.3107 14.0735 15.4709 13.9918C15.4193 14.0716 15.3694 14.1557 15.3217 14.2444C15.2894 14.3044 15.2584 14.3661 15.2285 14.4292ZM15.872 14.5406C16.1042 14.109 16.3904 13.8141 16.6875 13.6905V14.9533C16.3743 14.9223 16.0692 14.8448 15.78 14.7245C15.8094 14.6614 15.84 14.6001 15.872 14.5406ZM17.3125 15.5806C17.7015 15.5485 18.0811 15.4568 18.4398 15.3098C18.5649 15.7304 18.6415 16.1977 18.6645 16.6875H17.3125V15.5806ZM14.5391 14.6929C14.6843 14.8144 14.8368 14.9244 14.9954 15.0224C14.8333 15.5289 14.7355 16.0955 14.71 16.6875H13.6396C13.7104 15.9196 14.0396 15.2255 14.5391 14.6929ZM13.6396 17.3125H14.71C14.7355 17.9045 14.8333 18.4711 14.9954 18.9776C14.8369 19.0756 14.6843 19.1856 14.5391 19.3071C14.0396 18.7745 13.7104 18.0804 13.6396 17.3125ZM18.9874 19.7278C18.8415 19.8342 18.6879 19.9283 18.5283 20.0095C18.5801 19.9293 18.6303 19.8448 18.6783 19.7556C18.7106 19.6956 18.7416 19.6338 18.7715 19.5707C18.8453 19.6199 18.9172 19.6724 18.9874 19.7278ZM18.4399 18.6895C18.0815 18.5427 17.7021 18.4513 17.3125 18.4193V17.3125H18.6645C18.6415 17.8021 18.5649 18.2692 18.4399 18.6895Z" fill="#294966"/>
</svg>
